<?xml version="1.0" standalone="no"?><!DOCTYPE svg PUBLIC "-//W3C//DTD SVG 1.1//EN" "http://www.w3.org/Graphics/SVG/1.1/DTD/svg11.dtd"><svg t="1527674251998" class="icon" style="" viewBox="0 0 1024 1024" version="1.1" xmlns="http://www.w3.org/2000/svg" p-id="1930" xmlns:xlink="http://www.w3.org/1999/xlink" width="16" height="16"><defs><style type="text/css"></style></defs><path d="M634.368 964.224c-19.136 0-37.056-8-51.776-23.04-45.44-46.464-108.224-40.064-137.92-3.712-16.704 17.408-36.288 25.664-55.68 25.664l-19.2-1.536c-61.056-22.016-110.656-52.288-152-91.648-22.272-22.656-29.44-53.76-18.944-79.872a92.16 92.16 0 0 0-9.472-74.112c-15.04-26.944-34.496-42.176-59.904-47.36l-6.592-1.792a72.576 72.576 0 0 1-50.496-63.04A420.224 420.224 0 0 1 64 519.488c0-28.288 2.944-56.576 9.216-88.896l1.728-6.528c6.848-21.248 21.76-39.04 40.832-48.768l7.872-3.136c30.656-8.512 53.184-25.024 64.256-46.208 14.208-25.472 17.088-52.416 9.088-83.072a70.912 70.912 0 0 1 26.88-78.848c37.248-32.512 83.456-60.544 138.816-83.904 11.328-3.968 19.136-5.312 26.88-5.312 19.264 0 37.184 8 51.904 23.104 45.376 46.4 108.224 39.936 137.856 3.648 25.6-26.688 56.832-32.448 82.176-21.44 54.336 19.776 103.552 49.92 144.704 88.96 22.272 22.72 29.44 53.888 18.88 79.936-7.36 23.68-4.16 51.456 9.472 74.112 15.04 26.816 34.496 42.048 59.968 47.296l6.528 1.792c28.928 9.856 48.256 34.048 50.56 63.104 5.248 24.064 8.384 55.104 8.384 84.16 0 28.48-2.944 56.704-9.216 88.96l-1.728 6.592a83.84 83.84 0 0 1-40.768 48.64l-7.872 3.2c-30.656 8.512-53.184 25.088-64.32 46.208-14.208 25.408-17.088 52.416-9.088 83.008 9.28 28.032-1.792 61.824-26.816 78.784-37.312 32.576-83.52 60.672-138.816 83.968a75.968 75.968 0 0 1-27.008 5.376zM512 854.528c38.464 0 76.928 17.728 108.288 49.792 10.496 10.816 14.976 7.872 20.48 6.016 50.24-21.12 91.84-46.336 127.36-77.184 8.128-5.76 10.752-14.848 8.384-22.208-11.904-45.376-7.296-86.272 13.248-123.072 17.6-33.472 52.032-59.584 94.208-71.104l2.752-1.216a32.512 32.512 0 0 0 12.224-16.96c5.696-29.184 8.32-54.208 8.32-79.168 0-25.536-2.752-52.736-7.744-76.608-1.344-14.336-10.24-18.944-15.424-20.672-40.896-8.384-72.832-32.832-95.104-72.576a145.664 145.664 0 0 1-13.44-118.4c3.392-8.64 0.64-17.536-6.336-24.64a366.464 366.464 0 0 0-127.296-77.568l-6.016-1.344a23.04 23.04 0 0 0-15.616 7.104c-48.896 59.968-150.016 68.032-216.512 0-14.912-15.232-16.32-7.488-20.608-6.016-50.176 21.12-91.776 46.336-127.296 77.12a19.84 19.84 0 0 0-8.32 22.208c11.904 45.376 7.232 86.208-13.312 123.008-17.536 33.472-52.032 59.584-94.208 71.104l-2.816 1.216a32.384 32.384 0 0 0-12.16 16.96 402.56 402.56 0 0 0-8.384 79.232c0 25.472 2.752 52.672 7.808 76.672 1.152 11.456 6.464 17.6 15.424 20.672 40.96 8.384 72.896 32.832 95.104 72.576 21.056 34.816 26.112 78.272 13.44 118.336-3.392 8.576-0.64 17.472 6.336 24.576a364.352 364.352 0 0 0 128.384 77.952l5.888 0.064a22.144 22.144 0 0 0 14.72-6.08c25.792-31.68 65.216-49.792 108.224-49.792z" fill="#AFB0BA" p-id="1931"></path><path d="M510.656 672.96c-17.856 0-35.328-3.008-52.032-8.896l17.664-49.664a103.04 103.04 0 0 0 137.28-97.088 102.976 102.976 0 1 0-201.344 30.272l-50.368 15.424a155.84 155.84 0 0 1 148.8-201.28c85.824 0 155.584 69.824 155.584 155.648s-69.76 155.584-155.584 155.584z" fill="#AFB0BA" p-id="1932"></path></svg>